<svg xmlns="http://www.w3.org/2000/svg" xmlns:xlink="http://www.w3.org/1999/xlink" data-name="Layer 1" width="769.15018" height="500" viewBox="0 0 769.15018 500"><path id="efe8c2a6-7c83-4734-b3a8-78abd7d8e319-773" data-name="Path 395" d="M394.16419,381.11421a13.12251,13.12251,0,0,1-7.89453-2.62369l-.14122-.10592-29.73486-22.74621a13.214,13.214,0,0,1,16.07928-20.97359l19.25985,14.76935,45.512-59.37552a13.20838,13.20838,0,0,1,18.51877-2.44608l.00383.00287-.28245.3922.29011-.3922a13.22432,13.22432,0,0,1,2.44321,18.52249l-53.53212,69.80743a13.21635,13.21635,0,0,1-10.51031,5.15319Z" fill="#6c63ff"/><path d="M561.0554,466H216.42491a1,1,0,0,1-1-1V201a1,1,0,0,1,1-1H388.7401a1,1,0,0,1,0,2H217.42491V464H560.0554V333a1,1,0,0,1,2,0V465A1,1,0,0,1,561.0554,466Z" fill="#3f3d56"/></svg>