<svg xmlns="http://www.w3.org/2000/svg" xmlns:xlink="http://www.w3.org/1999/xlink" width="656" height="458.68644" viewBox="0 0 656 458.68644"><rect y="434.34322" width="656" height="2" fill="#3f3d56"/><g><path d="M471.97091,210.81398c-6.07329-36.41746-37.72841-64.16942-75.86422-64.16942H240.1493c-38.12098,0-69.76869,27.72972-75.86422,64.12498-.70358,4.16242-1.06653,8.44332-1.06653,12.80572v135.886c0,4.36236,.36295,8.63589,1.06653,12.79831,4.85126,28.99624,25.92996,52.49686,53.58563,60.84393,7.05095,2.13306,14.53143,3.28105,22.27859,3.28105h155.95739c7.74715,0,15.22764-1.14799,22.27859-3.28105,27.66309-8.35449,48.7492-31.86994,53.58563-60.88837,.69621-4.14759,1.05912-8.40629,1.05912-12.75387V223.57526c0-4.34758-.36291-8.61369-1.05912-12.76128Zm-62.66593,222.28952c-4.28831,.76284-8.69515,1.16282-13.19828,1.16282H240.1493c-4.50313,0-8.90997-.39998-13.19828-1.16282-35.01768-6.22884-61.60677-36.83226-61.60677-73.64224v-45.10525c0-127.45005,103.31244-165.58581,230.76245-165.58581,41.31315,0,74.80506,33.49195,74.80506,74.80506v135.886c-100.2906,13.42047-26.5891,67.4134-61.60677,73.64224Z" fill="#3f3d56"/><g><circle cx="333.24859" cy="323.64456" r="85" fill="#6c63ff"/><g><path d="M384.17838,316.82297h-10.56668c-1.64378-9.68714-6.71681-18.46011-14.29229-24.71729-17.43427-14.39992-43.24109-11.94022-57.641,5.49411-.04913,.05563-.09645,.11283-.14168,.17151-1.15062,1.49144-.87427,3.63332,.61717,4.78401,1.49118,1.15069,3.63306,.87447,4.78394-.61697,6.25536-7.5788,15.72368-12.40167,26.31064-12.40167,16.20852,.00195,30.17897,11.40631,33.42571,27.2863h-9.31805c-.39879,.00013-.78459,.13993-1.09083,.39502-.72375,.6028-.82176,1.6781-.21915,2.40185l13.41126,16.09894c.06577,.0789,.13856,.15169,.21759,.21746,.72323,.60326,1.79872,.50583,2.40185-.21746l13.41126-16.09894c.25503-.30624,.39489-.69223,.39515-1.09083,.00026-.94187-.76301-1.70565-1.70487-1.70604Z" fill="#fff"/><path d="M364.3433,344.73371c-1.49144-1.15062-3.63332-.87434-4.78394,.6171-4.96202,6.00781-11.83065,10.1363-19.46436,11.69923-18.46167,3.77988-36.4923-8.12213-40.27225-26.58393h9.31831c.94187-.00039,1.70513-.76418,1.70487-1.70604-.00026-.39853-.14012-.78452-.39515-1.09083l-13.41126-16.09888c-.60313-.72336-1.67862-.82079-2.40185-.21753-.07903,.06577-.15182,.13856-.21759,.21753l-13.41126,16.09888c-.60261,.72375-.5046,1.79911,.21915,2.40185,.30624,.25516,.69204,.39489,1.09083,.39502h10.56642c1.64404,9.68721,6.71681,18.46011,14.29255,24.71729,17.43427,14.39998,43.24109,11.94022,57.641-5.49404,.04913-.0557,.09619-.11296,.14142-.17164,1.15088-1.49144,.87453-3.63326-.61691-4.78401Z" fill="#fff"/></g></g></g></svg>